<svg id="Layer_1" data-name="Layer 1" xmlns="http://www.w3.org/2000/svg" viewBox="0 0 563.88 225.5"><defs><style>.cls-1{fill:#134b69;}.cls-1,.cls-2{fill-rule:evenodd;}.cls-2{fill:#f58a71;}.cls-3{fill:#1a3862;}.cls-4{fill:#1a3962;}.cls-5{fill:#1b3863;}.cls-6{fill:#4e4f4f;}</style></defs><path class="cls-1" d="M379.72,70.2c16.32-20.32,52.8-17.24,65.19,4,1.1-.58,1.61-1.7,2.35-2.57C457.18,60,470,55.54,485,56.66c8.52.64,16.41,3.08,23,8.7,8.7,7.37,12.67,17.16,13,28.24.44,14,.21,28,.26,42,0,6.17.05,12.34,0,18.51,0,3.34-.52,3.8-3.85,3.84-4.39.06-8.78.07-13.17,0-3.36-.06-3.7-.44-3.71-3.88q0-25.09,0-50.19a40,40,0,0,0-1.93-13.36C495,80.25,486.8,76,476.54,76.14c-6.83.11-13.19,2.17-18.37,7.06-5.45,5.13-7.61,11.59-7.64,18.83-.07,16.87,0,33.74,0,50.61,0,5.21-.08,5.28-5.28,5.29-3.71,0-7.41,0-11.11,0-4.08,0-4.36-.33-4.36-4.54q0-25.51,0-51a33.08,33.08,0,0,0-2.74-14c-4.44-9.68-13.32-12.62-22.27-12.18A28,28,0,0,0,394,78.79c-10.28,4.9-14.24,13.53-14.3,24.34-.09,16.32,0,32.65,0,49,0,1.1,0,2.2,0,3.29a2.32,2.32,0,0,1-2.59,2.53q-7.61,0-15.22,0c-2,0-3-1.17-2.91-3.16,0-.83,0-1.65,0-2.47,0-28.26.06-56.51-.09-84.76,0-3.23,1-5,3.76-6.38C366.9,59,370.92,56.32,375.1,54c3.2-1.78,4.53-1,4.6,2.76C379.78,61,379.72,65.19,379.72,70.2Z"/><path class="cls-1" d="M20.67,69.63C47.81,47.8,82.1,56,97.58,74.28c16.26,19.23,16.28,49-.1,68C81.24,161.16,47,168.12,20.67,146.8c0,2.67-.07,5.08,0,7.47s-.78,3.67-3.27,3.66c-4.8,0-9.6,0-14.4,0-2,0-3.11-.87-2.94-3,.06-.82,0-1.65,0-2.47Q.09,83.32,0,14.21C0,10.85,1,9,3.93,7.54c3.91-2,7.58-4.37,11.41-6.49s5.32-1.12,5.32,3.06q0,30.24,0,60.47Zm36.49,70.73c18.41,0,32-13.7,31.94-32.31,0-18.17-13.84-32.23-31.87-32.13S25.1,88.67,25.08,108.17C25.07,129,41.05,140.77,57.16,140.36Z"/><path class="cls-1" d="M176.59,159.84c-24.3,0-43.53-13.13-50.73-34.67-10.48-31.36,9-64.6,43.43-68.26,18.14-1.93,34,3.06,46.35,16.77,24.31,26.92,14.13,73.78-25.11,84.4A43.81,43.81,0,0,1,176.59,159.84Zm31.19-51.58c0-18.49-13.68-32.38-32-32.37s-31.92,14-31.94,32.46c0,18.27,13.6,32,31.82,32C194.26,140.39,207.75,126.89,207.78,108.26Z"/><path class="cls-1" d="M346,108.3c0,29.37-22.53,51.29-52.36,51.62-28,.31-53-20.17-53.13-51.8-.14-29.25,23-51.74,52.9-51.73S346,78.78,346,108.3Zm-52.88,32.06c18.42.1,32.19-13.59,32.24-32.06.05-18.18-13.63-32.2-31.64-32.41a31.58,31.58,0,0,0-32.45,32C261.25,128.22,276.66,140.68,293.09,140.36Z"/><path class="cls-1" d="M560.63,107.15q0,23,0,46.09c0,4.49-.16,4.65-4.57,4.69q-5.76,0-11.52,0c-4.13,0-4.48-.36-4.48-4.44q0-20.78,0-41.56,0-25.29,0-50.6c0-4.61.29-4.89,4.86-4.92,3.84,0,7.68,0,11.52,0s4.18.35,4.19,4.25Q560.65,83.91,560.63,107.15Z"/><path class="cls-2" d="M563.11,26.88a13,13,0,0,1-12.9,12.68,13,13,0,0,1,.13-26C557.33,13.5,563.16,19.59,563.11,26.88Z"/><path class="cls-3" d="M249.23,212.46l-1.47,2.11h-2.09V181.31h4.17v11.26a5.19,5.19,0,0,1,2.24-1.48,8.37,8.37,0,0,1,3.22-.67,10.11,10.11,0,0,1,7.84,3.3,12,12,0,0,1,3,8.35q0,5.82-3,9.16a10.4,10.4,0,0,1-8.15,3.34,9.18,9.18,0,0,1-3.29-.62A6.75,6.75,0,0,1,249.23,212.46Zm.61-16.74v13.43c0,.24.52.62,1.57,1.15a6,6,0,0,0,2.37.79q4.26,0,6.11-2t1.85-6.79a8.48,8.48,0,0,0-2.16-6.17,7.7,7.7,0,0,0-5.8-2.22,5.42,5.42,0,0,0-2.14.66A5.29,5.29,0,0,0,249.84,195.72Z"/><path class="cls-3" d="M279.75,218.09a7.16,7.16,0,0,1-3.42,3.69,11.56,11.56,0,0,1-5.82,1.48v-3.69a8.06,8.06,0,0,0,4.49-1.21,3.49,3.49,0,0,0,1.87-2.94,11,11,0,0,0-.68-3.78q-.69-1.86-1.76-4.59l-6.38-16.2h4.27l6.92,18,6.22-18h4.27Z"/><path class="cls-4" d="M350.42,183.06a.35.35,0,0,0,.15-.29A.35.35,0,0,1,350.42,183.06Z"/><path class="cls-5" d="M382.94,183.26c4.67,0,8.17,1.17,10.48,3.42s3.62,5.78,3.94,10.58l.06,1.26c0,.43,0,.87,0,1.32a20.65,20.65,0,0,1-1.11,6.11,11,11,0,0,1-3.6,5.05,10.19,10.19,0,0,1-4.51,2.16,26.77,26.77,0,0,1-5.07.47H368.86V183.26Zm-.13,5.28h-7.49v19.8h7.49a.41.41,0,0,0,.19,0h.19a14.07,14.07,0,0,0,2.77-.27,4.41,4.41,0,0,0,2.37-1.42,6.79,6.79,0,0,0,1.43-2.67,16.85,16.85,0,0,0,.54-3c0-.42,0-.85,0-1.27v-2.6a10.39,10.39,0,0,0-.09-1.37,13.21,13.21,0,0,0-.49-2.92,6.11,6.11,0,0,0-1.43-2.54,4.51,4.51,0,0,0-2.37-1.44,13.35,13.35,0,0,0-2.77-.29h-.38Z"/><path class="cls-5" d="M413.91,191.34a18.8,18.8,0,0,1,3.79.44,6.66,6.66,0,0,1,3.27,1.84,6.38,6.38,0,0,1,1.73,2.79,11.13,11.13,0,0,1,.49,3.3v13.92h-16a7,7,0,0,1-5.3-1.89,6.62,6.62,0,0,1-1.67-5.22q.3-4,2.87-5.2a14.49,14.49,0,0,1,6.12-1.19l7.82,0c.09-1.83-.39-3-1.43-3.43a10,10,0,0,0-4-.67l-9.92,0v-4.61Zm-4.28,17.8h7.45v-4.61h-7a.35.35,0,0,1-.17,0h-.17a6.76,6.76,0,0,0-2.23.45,1.85,1.85,0,0,0-1.07,1.88c-.05,1.1.25,1.75.92,1.95a9.21,9.21,0,0,0,2.29.33Z"/><path class="cls-5" d="M430.38,191.34v-8.08h5.95v8.08h6.29v4.44h-6.29v9c0,2.22.48,3.52,1.54,3.89a13.94,13.94,0,0,0,4.36.55h.39v4.4h-5.44a6.55,6.55,0,0,1-5.09-1.87,7.2,7.2,0,0,1-1.71-5.07V195.78h-4.19v-4.44Z"/><path class="cls-5" d="M458.79,191.34a18.62,18.62,0,0,1,3.78.44,6.69,6.69,0,0,1,3.28,1.84,6.48,6.48,0,0,1,1.73,2.79,11.13,11.13,0,0,1,.49,3.3v13.92h-16a7,7,0,0,1-5.3-1.89,6.59,6.59,0,0,1-1.67-5.22q.3-4,2.86-5.2a14.49,14.49,0,0,1,6.12-1.19l7.83,0c.09-1.83-.39-3-1.43-3.43a10.07,10.07,0,0,0-4-.67l-9.93,0v-4.61Zm-4.28,17.8H462v-4.61h-7a.38.38,0,0,1-.17,0h-.18a6.7,6.7,0,0,0-2.22.45,1.85,1.85,0,0,0-1.07,1.88c-.06,1.1.25,1.75.92,1.95a9.14,9.14,0,0,0,2.29.33Z"/><path class="cls-5" d="M330.92,174.92l10.74-6.1-6.81-3.89a5,5,0,0,0-1.17-.48,5.16,5.16,0,0,0-3.93.48l-8.21,4.67Z"/><path class="cls-5" d="M333.76,176.53l11.09,6.28,8.22-4.67a1.65,1.65,0,0,0,.66-2.21,1.9,1.9,0,0,0-.26-.37l-9-5.13Z"/><path class="cls-5" d="M328.08,176.53l-9.38-5.32-8.91,5a1.67,1.67,0,0,0-.66,2.22,1.59,1.59,0,0,0,.27.37l7.27,4.15Z"/><path class="cls-5" d="M330.92,178.14l-11.42,6.48,8.51,4.86a5.22,5.22,0,0,0,5.1,0l8.9-5Z"/><polygon class="cls-6" points="483.38 183.26 491.21 206.56 499.04 183.26 508.5 183.26 508.5 213.63 502.17 213.63 502.68 189.98 494.81 213.63 487.96 213.63 479.83 189.73 480.48 213.63 473.89 213.63 473.89 183.26 483.38 183.26"/><path class="cls-6" d="M526.89,191.34a18.72,18.72,0,0,1,3.79.44,6.66,6.66,0,0,1,3.27,1.84,6.29,6.29,0,0,1,1.73,2.79,11.14,11.14,0,0,1,.5,3.3v13.92h-16a7.09,7.09,0,0,1-5.31-1.89,6.62,6.62,0,0,1-1.67-5.22q.3-4,2.87-5.2a14.49,14.49,0,0,1,6.12-1.19l7.82,0c.09-1.83-.39-3-1.43-3.43a10,10,0,0,0-4-.67l-9.92,0v-4.61Zm-4.28,17.8h7.45v-4.61h-7a.35.35,0,0,1-.17,0h-.17a6.76,6.76,0,0,0-2.23.45,1.83,1.83,0,0,0-1.06,1.88c-.06,1.1.25,1.75.91,1.95a9.28,9.28,0,0,0,2.29.33Z"/><path class="cls-6" d="M552.9,191.34q5.05,0,7.89,2.87a11.14,11.14,0,0,1,3.06,7.74,14.13,14.13,0,0,1-.42,4.4,10,10,0,0,1-2,3.89,7.35,7.35,0,0,1-4,2.79,19.51,19.51,0,0,1-4.92.6h-5.14v8h-5.94V191.34Zm-5.52,4.82v12.69c.2,0,.4,0,.58,0h.58a20.47,20.47,0,0,0,6.67-.83c1.71-.57,2.53-2.63,2.44-6.15q-.12-4.44-2.57-5.12a21.07,21.07,0,0,0-5.86-.63c-.31,0-.62,0-.92,0h-.92Z"/><path class="cls-6" d="M331.43,200.2a6.56,6.56,0,0,0-3.32-5.69l-1.72-1-22.56-12.8v31.43l5.74,3.27,16.86,9.62a3.33,3.33,0,0,0,5-2.85Zm-5.73,13.53a2.45,2.45,0,0,1-3.66,2.11l-12.47-7V190.81l11.49,6.59a9.21,9.21,0,0,1,4.64,8Z"/><path class="cls-6" d="M352,183.43l-4.26,2.45-4.95,2.84-4.27,2.46-.54.31a4.58,4.58,0,0,0-2.32,4v27.84a2,2,0,0,0,2,2,1.89,1.89,0,0,0,1-.27l.32-.18A3.38,3.38,0,0,0,340.7,222V200.33h0v-2.56l4.27-2.46V217.9a2.09,2.09,0,0,0,3.14,1.79l.4-.23a2.2,2.2,0,0,0,.32-.21,2.87,2.87,0,0,0,1.32-2.4V200.33h0v-8L354.2,190v22.86a2,2,0,0,0,3,1.68l.28-.19a3.68,3.68,0,0,0,1.59-3V185.2c0-6.11-7.06-1.77-7.06-1.77"/></svg>